<?xml version="1.0" encoding="utf-8"?>
<!-- Generator: Adobe Illustrator 23.0.0, SVG Export Plug-In . SVG Version: 6.00 Build 0)  -->
<svg version="1.1" id="Camada_1" xmlns="http://www.w3.org/2000/svg" xmlns:xlink="http://www.w3.org/1999/xlink" x="0px" y="0px"
	 viewBox="0 0 329 67" style="enable-background:new 0 0 329 67;" xml:space="preserve">
<style type="text/css">
	.st0{fill:#FFFFFF;}
	.st1{fill:none;stroke:#FFFFFF;stroke-width:2.3826;stroke-miterlimit:10;}
	.st2{fill:none;stroke:#FFFFFF;stroke-width:2.3825;stroke-linecap:round;stroke-miterlimit:1;}
</style>
<g>
	<g>
		<path class="st0" d="M2.05,39.09V16.32c0-3.34,0.93-5.96,2.8-7.86c1.86-1.9,4.43-2.85,7.71-2.85c2.04,0,3.92,0.54,5.62,1.61
			s2.89,2.46,3.58,4.18c0.71-1.75,1.9-3.15,3.58-4.21c1.67-1.05,3.56-1.58,5.67-1.58c3.28,0,5.85,0.95,7.71,2.85
			c1.86,1.9,2.8,4.52,2.8,7.86v22.77c0,1.04-0.44,1.56-1.31,1.56c-0.84,0-1.26-0.52-1.26-1.56V16.32c0-2.79-0.65-4.86-1.95-6.23
			c-1.3-1.36-3.29-2.04-5.98-2.04c-2.47,0-4.41,0.74-5.84,2.21c-1.43,1.48-2.14,3.5-2.14,6.06v22.77c0,1.04-0.42,1.56-1.26,1.56
			c-0.81,0-1.22-0.52-1.22-1.56V16.32c0-2.5-0.73-4.5-2.19-6.01c-1.46-1.51-3.39-2.26-5.79-2.26c-2.69,0-4.69,0.68-5.98,2.04
			c-1.3,1.36-1.95,3.44-1.95,6.23v22.77c0,1.04-0.44,1.56-1.31,1.56C2.47,40.64,2.05,40.13,2.05,39.09z"/>
		<path class="st0" d="M116.54,38.75c-0.99-0.94-1.48-2.25-1.48-3.94V11.46c0-1.69,0.49-3,1.48-3.94c0.99-0.94,2.38-1.41,4.16-1.41
			h6.86c3.21,0,6.04,0.71,8.49,2.12c2.45,1.41,4.34,3.41,5.67,5.98c1.33,2.58,1.99,5.57,1.99,8.98s-0.67,6.39-1.99,8.95
			c-1.33,2.56-3.21,4.54-5.64,5.94c-2.43,1.39-5.27,2.09-8.51,2.09h-6.86C118.91,40.16,117.53,39.69,116.54,38.75z M127.07,37.87
			c4.38,0,7.81-1.3,10.29-3.89c2.48-2.59,3.72-6.19,3.72-10.8c0-3.05-0.56-5.68-1.68-7.91c-1.12-2.22-2.73-3.92-4.84-5.11
			c-2.11-1.18-4.61-1.78-7.49-1.78h-6.66c-0.84,0-1.52,0.27-2.02,0.8c-0.5,0.54-0.75,1.24-0.75,2.12v23.64
			c0,0.88,0.25,1.58,0.75,2.12c0.5,0.54,1.18,0.8,2.02,0.8H127.07z"/>
		<path class="st0" d="M159.27,39.09V8.39h-11.82c-0.97-0.06-1.46-0.44-1.46-1.12c0-0.42,0.11-0.72,0.34-0.9
			c0.23-0.18,0.6-0.27,1.12-0.27h26.22c0.52,0,0.89,0.09,1.12,0.27c0.23,0.18,0.34,0.48,0.34,0.9c0,0.75-0.49,1.12-1.46,1.12h-11.82
			v30.7c0,1.04-0.44,1.56-1.31,1.56C159.7,40.64,159.27,40.13,159.27,39.09z"/>
		<path class="st0" d="M179.12,39.09v-19.8c0-4.31,1.2-7.67,3.6-10.07c2.4-2.4,5.72-3.6,9.97-3.6c4.25,0,7.57,1.21,9.97,3.62
			c2.4,2.42,3.6,5.77,3.6,10.05v19.8c0,1.04-0.42,1.56-1.26,1.56c-0.88,0-1.31-0.52-1.31-1.56V27.02H181.7v12.06
			c0,1.04-0.44,1.56-1.31,1.56C179.54,40.64,179.12,40.13,179.12,39.09z M203.69,24.74v-5.59c0-3.57-0.95-6.32-2.85-8.25
			C198.95,8.97,196.23,8,192.7,8c-3.54,0-6.25,0.97-8.15,2.89c-1.9,1.93-2.85,4.68-2.85,8.25v5.59H203.69z"/>
		<path class="st0" d="M223.54,39.09V8.39h-11.82c-0.97-0.06-1.46-0.44-1.46-1.12c0-0.42,0.11-0.72,0.34-0.9
			c0.23-0.18,0.6-0.27,1.12-0.27h26.22c0.52,0,0.89,0.09,1.12,0.27c0.23,0.18,0.34,0.48,0.34,0.9c0,0.75-0.49,1.12-1.46,1.12h-11.82
			v30.7c0,1.04-0.44,1.56-1.31,1.56C223.96,40.64,223.54,40.13,223.54,39.09z"/>
		<path class="st0" d="M247.76,39.09V7.17c0-1.04,0.42-1.56,1.27-1.56c0.88,0,1.31,0.52,1.31,1.56v31.91c0,1.04-0.44,1.56-1.31,1.56
			C248.19,40.64,247.76,40.13,247.76,39.09z"/>
		<path class="st0" d="M267.69,38.5c-2.58-1.43-4.64-3.47-6.18-6.13c-1.54-2.66-2.31-5.74-2.31-9.24c0-3.5,0.77-6.58,2.31-9.24
			c1.54-2.66,3.6-4.7,6.18-6.13c2.58-1.43,5.41-2.14,8.49-2.14c3.08,0,5.91,0.71,8.49,2.14c2.58,1.43,4.64,3.47,6.18,6.13
			c1.54,2.66,2.31,5.74,2.31,9.24c0,3.5-0.77,6.58-2.31,9.24c-1.54,2.66-3.6,4.7-6.18,6.13c-2.58,1.43-5.41,2.14-8.49,2.14
			C273.09,40.64,270.26,39.93,267.69,38.5z M283.47,36.51c2.17-1.17,3.9-2.89,5.18-5.18c1.28-2.29,1.92-5.02,1.92-8.2
			c0-3.18-0.64-5.91-1.92-8.2c-1.28-2.29-3.01-4.01-5.18-5.18C281.3,8.58,278.87,8,276.18,8c-2.69,0-5.13,0.58-7.3,1.75
			c-2.17,1.17-3.9,2.89-5.18,5.18c-1.28,2.29-1.92,5.02-1.92,8.2c0,3.18,0.64,5.91,1.92,8.2c1.28,2.29,3.01,4.01,5.18,5.18
			c2.17,1.17,4.6,1.75,7.3,1.75C278.87,38.26,281.3,37.68,283.47,36.51z"/>
		<path class="st0" d="M299.09,39.09V18.7c0-4.12,1.22-7.33,3.67-9.63c2.45-2.3,5.85-3.45,10.19-3.45c4.35,0,7.74,1.15,10.19,3.45
			c2.45,2.3,3.67,5.51,3.67,9.63v20.38c0,1.04-0.42,1.56-1.26,1.56c-0.88,0-1.31-0.52-1.31-1.56V18.56c0-3.37-0.98-5.98-2.94-7.81
			C319.33,8.92,316.55,8,312.95,8s-6.38,0.92-8.34,2.75c-1.96,1.83-2.94,4.44-2.94,7.81v20.53c0,1.04-0.44,1.56-1.31,1.56
			C299.51,40.64,299.09,40.13,299.09,39.09z"/>
	</g>
	<g>
		<path class="st1" d="M93,39.72H63.09c-8.48,0-15.35-6.87-15.35-15.35v-1.22c0-8.48,6.87-15.35,15.35-15.35H93
			c8.48,0,15.35,6.87,15.35,15.35v1.22C108.36,32.85,101.48,39.72,93,39.72z"/>
		<ellipse class="st1" cx="92.04" cy="23.76" rx="11.46" ry="11.35"/>
		<path class="st2" d="M87.21,25.59c0,0,0.38,4.83,4.83,4.83c4.45,0,4.83-4.83,4.83-4.83"/>
	</g>
</g>
<g>
	<g>
		<path class="st0" d="M175.51,61.87v-8.36c0-1.02-0.22-1.79-0.66-2.3s-1.12-0.77-2.04-0.77c-1.21,0-2.11,0.35-2.68,1.04
			s-0.87,1.77-0.87,3.21v7.17h-1.95v-8.36c0-1.02-0.22-1.79-0.66-2.3s-1.12-0.77-2.05-0.77c-1.22,0-2.11,0.37-2.68,1.1
			s-0.85,1.93-0.85,3.59v6.74h-1.95V49.02h1.58l0.32,1.76h0.09c0.37-0.63,0.88-1.11,1.55-1.46s1.42-0.53,2.24-0.53
			c2.01,0,3.32,0.73,3.94,2.18h0.09c0.38-0.67,0.94-1.2,1.66-1.59s1.55-0.59,2.48-0.59c1.45,0,2.54,0.37,3.26,1.12
			s1.08,1.94,1.08,3.58v8.38H175.51z"/>
		<path class="st0" d="M194.18,55.43c0,2.09-0.53,3.73-1.58,4.9s-2.51,1.76-4.37,1.76c-1.15,0-2.17-0.27-3.06-0.81
			s-1.58-1.31-2.06-2.32s-0.73-2.19-0.73-3.54c0-2.09,0.52-3.72,1.57-4.89s2.5-1.75,4.36-1.75c1.8,0,3.22,0.6,4.28,1.79
			S194.18,53.4,194.18,55.43z M184.39,55.43c0,1.64,0.33,2.89,0.98,3.75s1.62,1.29,2.89,1.29s2.24-0.43,2.9-1.28
			s0.99-2.11,0.99-3.76c0-1.63-0.33-2.87-0.99-3.72s-1.63-1.27-2.92-1.27c-1.27,0-2.23,0.42-2.88,1.25S184.39,53.78,184.39,55.43z"
			/>
		<path class="st0" d="M210.31,55.43c0,2.09-0.53,3.73-1.58,4.9s-2.51,1.76-4.37,1.76c-1.15,0-2.17-0.27-3.06-0.81
			s-1.58-1.31-2.06-2.32s-0.73-2.19-0.73-3.54c0-2.09,0.52-3.72,1.57-4.89s2.5-1.75,4.36-1.75c1.8,0,3.22,0.6,4.28,1.79
			S210.31,53.4,210.31,55.43z M200.52,55.43c0,1.64,0.33,2.89,0.98,3.75s1.62,1.29,2.89,1.29s2.24-0.43,2.9-1.28
			s0.99-2.11,0.99-3.76c0-1.63-0.33-2.87-0.99-3.72s-1.63-1.27-2.92-1.27c-1.27,0-2.23,0.42-2.88,1.25S200.52,53.78,200.52,55.43z"
			/>
		<path class="st0" d="M224.09,60.15h-0.11c-0.9,1.3-2.24,1.96-4.03,1.96c-1.68,0-2.99-0.57-3.92-1.72s-1.4-2.78-1.4-4.9
			s0.47-3.76,1.41-4.93s2.24-1.76,3.91-1.76c1.74,0,3.08,0.63,4.01,1.9h0.15l-0.08-0.93l-0.05-0.9v-5.23h1.95v18.23h-1.58
			L224.09,60.15z M220.2,60.47c1.33,0,2.29-0.36,2.89-1.08s0.9-1.89,0.9-3.5v-0.41c0-1.82-0.3-3.12-0.91-3.9s-1.57-1.17-2.9-1.17
			c-1.14,0-2.01,0.44-2.62,1.33s-0.91,2.14-0.91,3.76c0,1.64,0.3,2.88,0.9,3.71S219.04,60.47,220.2,60.47z"/>
		<path class="st0" d="M247.84,58.36c0,1.2-0.45,2.12-1.34,2.77s-2.14,0.97-3.75,0.97c-1.7,0-3.03-0.27-3.98-0.81v-1.8
			c0.62,0.31,1.28,0.56,1.99,0.74s1.39,0.27,2.04,0.27c1.02,0,1.8-0.16,2.34-0.49s0.82-0.82,0.82-1.48c0-0.5-0.22-0.93-0.65-1.28
			s-1.28-0.78-2.54-1.26c-1.2-0.45-2.04-0.83-2.55-1.17s-0.88-0.71-1.13-1.13s-0.37-0.93-0.37-1.51c0-1.05,0.43-1.87,1.28-2.48
			s2.02-0.91,3.5-0.91c1.38,0,2.73,0.28,4.05,0.84l-0.69,1.58c-1.29-0.53-2.46-0.8-3.5-0.8c-0.92,0-1.62,0.14-2.09,0.43
			s-0.7,0.69-0.7,1.2c0,0.34,0.09,0.64,0.26,0.88s0.46,0.47,0.85,0.69s1.14,0.54,2.25,0.95c1.52,0.55,2.55,1.11,3.09,1.68
			S247.84,57.51,247.84,58.36z"/>
		<path class="st0" d="M258.06,62.1c-1.9,0-3.4-0.58-4.49-1.73s-1.65-2.76-1.65-4.82c0-2.07,0.51-3.71,1.53-4.93
			s2.39-1.83,4.11-1.83c1.61,0,2.88,0.53,3.82,1.59s1.41,2.46,1.41,4.19v1.23h-8.85c0.04,1.51,0.42,2.65,1.14,3.43
			s1.74,1.17,3.05,1.17c1.38,0,2.75-0.29,4.1-0.87v1.73c-0.69,0.3-1.34,0.51-1.95,0.64S258.93,62.1,258.06,62.1z M257.53,50.42
			c-1.03,0-1.85,0.34-2.47,1.01s-0.97,1.6-1.08,2.79h6.71c0-1.23-0.27-2.17-0.82-2.82S258.55,50.42,257.53,50.42z"/>
		<path class="st0" d="M269.56,49.02v8.33c0,1.05,0.24,1.83,0.71,2.34s1.22,0.77,2.24,0.77c1.34,0,2.33-0.37,2.95-1.1
			s0.93-1.93,0.93-3.6v-6.75h1.95v12.84h-1.61l-0.28-1.72h-0.11c-0.4,0.63-0.95,1.12-1.66,1.45s-1.51,0.5-2.42,0.5
			c-1.56,0-2.73-0.37-3.51-1.11s-1.17-1.93-1.17-3.56v-8.4H269.56z"/>
		<path class="st0" d="M300.7,60.15h-0.11c-0.9,1.3-2.24,1.96-4.03,1.96c-1.68,0-2.99-0.57-3.92-1.72s-1.4-2.78-1.4-4.9
			s0.47-3.76,1.41-4.93s2.24-1.76,3.91-1.76c1.74,0,3.08,0.63,4.01,1.9h0.15l-0.08-0.93l-0.05-0.9v-5.23h1.95v18.23h-1.58
			L300.7,60.15z M296.81,60.47c1.33,0,2.29-0.36,2.89-1.08s0.9-1.89,0.9-3.5v-0.41c0-1.82-0.3-3.12-0.91-3.9s-1.57-1.17-2.9-1.17
			c-1.14,0-2.01,0.44-2.62,1.33s-0.91,2.14-0.91,3.76c0,1.64,0.3,2.88,0.9,3.71S295.65,60.47,296.81,60.47z"/>
		<path class="st0" d="M308.14,45.54c0-0.45,0.11-0.77,0.33-0.98s0.49-0.31,0.82-0.31c0.31,0,0.58,0.11,0.81,0.32
			s0.34,0.54,0.34,0.97s-0.11,0.76-0.34,0.98s-0.5,0.32-0.81,0.32c-0.33,0-0.6-0.11-0.82-0.32S308.14,45.98,308.14,45.54z
			 M310.25,61.87h-1.95V49.02h1.95V61.87z"/>
		<path class="st0" d="M323.9,61.87l-0.39-1.83h-0.09c-0.64,0.8-1.28,1.35-1.92,1.63s-1.43,0.43-2.38,0.43
			c-1.27,0-2.27-0.33-2.99-0.98s-1.08-1.59-1.08-2.8c0-2.59,2.07-3.95,6.22-4.08l2.18-0.07v-0.8c0-1.01-0.22-1.75-0.65-2.23
			s-1.13-0.72-2.08-0.72c-1.07,0-2.28,0.33-3.63,0.98l-0.6-1.49c0.63-0.34,1.33-0.61,2.08-0.81s1.51-0.29,2.27-0.29
			c1.53,0,2.67,0.34,3.4,1.02s1.11,1.77,1.11,3.27v8.77H323.9z M319.51,60.5c1.21,0,2.16-0.33,2.85-1s1.04-1.59,1.04-2.79v-1.16
			l-1.95,0.08c-1.55,0.05-2.66,0.29-3.35,0.72s-1.03,1.09-1.03,1.99c0,0.7,0.21,1.24,0.64,1.61S318.74,60.5,319.51,60.5z"/>
	</g>
</g>
</svg>
